<svg xmlns="http://www.w3.org/2000/svg" viewBox="0 0 32 32" shape-rendering="crispEdges"><rect x="1" y="5" width="30" height="1" fill="#100b06"/><rect x="1" y="6" width="1" height="1" fill="#100b06"/><rect x="2" y="6" width="13" height="1" fill="#29407a"/><rect x="15" y="6" width="15" height="1" fill="#c0392b"/><rect x="30" y="6" width="1" height="1" fill="#100b06"/><rect x="1" y="7" width="1" height="1" fill="#100b06"/><rect x="2" y="7" width="1" height="1" fill="#29407a"/><rect x="3" y="7" width="1" height="1" fill="#ece0c0"/><rect x="4" y="7" width="2" height="1" fill="#29407a"/><rect x="6" y="7" width="1" height="1" fill="#ece0c0"/><rect x="7" y="7" width="2" height="1" fill="#29407a"/><rect x="9" y="7" width="1" height="1" fill="#ece0c0"/><rect x="10" y="7" width="2" height="1" fill="#29407a"/><rect x="12" y="7" width="1" height="1" fill="#ece0c0"/><rect x="13" y="7" width="2" height="1" fill="#29407a"/><rect x="15" y="7" width="15" height="1" fill="#c0392b"/><rect x="30" y="7" width="1" height="1" fill="#100b06"/><rect x="1" y="8" width="1" height="1" fill="#100b06"/><rect x="2" y="8" width="2" height="1" fill="#29407a"/><rect x="4" y="8" width="1" height="1" fill="#ece0c0"/><rect x="5" y="8" width="2" height="1" fill="#29407a"/><rect x="7" y="8" width="1" height="1" fill="#ece0c0"/><rect x="8" y="8" width="2" height="1" fill="#29407a"/><rect x="10" y="8" width="1" height="1" fill="#ece0c0"/><rect x="11" y="8" width="2" height="1" fill="#29407a"/><rect x="13" y="8" width="1" height="1" fill="#ece0c0"/><rect x="14" y="8" width="1" height="1" fill="#29407a"/><rect x="15" y="8" width="15" height="1" fill="#c0392b"/><rect x="30" y="8" width="1" height="1" fill="#100b06"/><rect x="1" y="9" width="1" height="1" fill="#100b06"/><rect x="2" y="9" width="13" height="1" fill="#29407a"/><rect x="15" y="9" width="15" height="1" fill="#ece0c0"/><rect x="30" y="9" width="1" height="1" fill="#100b06"/><rect x="1" y="10" width="1" height="1" fill="#100b06"/><rect x="2" y="10" width="1" height="1" fill="#29407a"/><rect x="3" y="10" width="1" height="1" fill="#ece0c0"/><rect x="4" y="10" width="2" height="1" fill="#29407a"/><rect x="6" y="10" width="1" height="1" fill="#ece0c0"/><rect x="7" y="10" width="2" height="1" fill="#29407a"/><rect x="9" y="10" width="1" height="1" fill="#ece0c0"/><rect x="10" y="10" width="2" height="1" fill="#29407a"/><rect x="12" y="10" width="1" height="1" fill="#ece0c0"/><rect x="13" y="10" width="2" height="1" fill="#29407a"/><rect x="15" y="10" width="15" height="1" fill="#ece0c0"/><rect x="30" y="10" width="1" height="1" fill="#100b06"/><rect x="1" y="11" width="1" height="1" fill="#100b06"/><rect x="2" y="11" width="2" height="1" fill="#29407a"/><rect x="4" y="11" width="1" height="1" fill="#ece0c0"/><rect x="5" y="11" width="2" height="1" fill="#29407a"/><rect x="7" y="11" width="1" height="1" fill="#ece0c0"/><rect x="8" y="11" width="2" height="1" fill="#29407a"/><rect x="10" y="11" width="1" height="1" fill="#ece0c0"/><rect x="11" y="11" width="2" height="1" fill="#29407a"/><rect x="13" y="11" width="1" height="1" fill="#ece0c0"/><rect x="14" y="11" width="1" height="1" fill="#29407a"/><rect x="15" y="11" width="15" height="1" fill="#ece0c0"/><rect x="30" y="11" width="1" height="1" fill="#100b06"/><rect x="1" y="12" width="1" height="1" fill="#100b06"/><rect x="2" y="12" width="13" height="1" fill="#29407a"/><rect x="15" y="12" width="15" height="1" fill="#c0392b"/><rect x="30" y="12" width="1" height="1" fill="#100b06"/><rect x="1" y="13" width="1" height="1" fill="#100b06"/><rect x="2" y="13" width="1" height="1" fill="#29407a"/><rect x="3" y="13" width="1" height="1" fill="#ece0c0"/><rect x="4" y="13" width="2" height="1" fill="#29407a"/><rect x="6" y="13" width="1" height="1" fill="#ece0c0"/><rect x="7" y="13" width="2" height="1" fill="#29407a"/><rect x="9" y="13" width="1" height="1" fill="#ece0c0"/><rect x="10" y="13" width="2" height="1" fill="#29407a"/><rect x="12" y="13" width="1" height="1" fill="#ece0c0"/><rect x="13" y="13" width="2" height="1" fill="#29407a"/><rect x="15" y="13" width="15" height="1" fill="#c0392b"/><rect x="30" y="13" width="1" height="1" fill="#100b06"/><rect x="1" y="14" width="1" height="1" fill="#100b06"/><rect x="2" y="14" width="2" height="1" fill="#29407a"/><rect x="4" y="14" width="1" height="1" fill="#ece0c0"/><rect x="5" y="14" width="2" height="1" fill="#29407a"/><rect x="7" y="14" width="1" height="1" fill="#ece0c0"/><rect x="8" y="14" width="2" height="1" fill="#29407a"/><rect x="10" y="14" width="1" height="1" fill="#ece0c0"/><rect x="11" y="14" width="2" height="1" fill="#29407a"/><rect x="13" y="14" width="1" height="1" fill="#ece0c0"/><rect x="14" y="14" width="1" height="1" fill="#29407a"/><rect x="15" y="14" width="15" height="1" fill="#c0392b"/><rect x="30" y="14" width="1" height="1" fill="#100b06"/><rect x="1" y="15" width="1" height="1" fill="#100b06"/><rect x="2" y="15" width="13" height="1" fill="#29407a"/><rect x="15" y="15" width="15" height="1" fill="#ece0c0"/><rect x="30" y="15" width="1" height="1" fill="#100b06"/><rect x="1" y="16" width="1" height="1" fill="#100b06"/><rect x="2" y="16" width="1" height="1" fill="#29407a"/><rect x="3" y="16" width="1" height="1" fill="#ece0c0"/><rect x="4" y="16" width="2" height="1" fill="#29407a"/><rect x="6" y="16" width="1" height="1" fill="#ece0c0"/><rect x="7" y="16" width="2" height="1" fill="#29407a"/><rect x="9" y="16" width="1" height="1" fill="#ece0c0"/><rect x="10" y="16" width="2" height="1" fill="#29407a"/><rect x="12" y="16" width="1" height="1" fill="#ece0c0"/><rect x="13" y="16" width="2" height="1" fill="#29407a"/><rect x="15" y="16" width="15" height="1" fill="#ece0c0"/><rect x="30" y="16" width="1" height="1" fill="#100b06"/><rect x="1" y="17" width="1" height="1" fill="#100b06"/><rect x="2" y="17" width="13" height="1" fill="#29407a"/><rect x="15" y="17" width="15" height="1" fill="#ece0c0"/><rect x="30" y="17" width="1" height="1" fill="#100b06"/><rect x="1" y="18" width="1" height="1" fill="#100b06"/><rect x="2" y="18" width="28" height="1" fill="#c0392b"/><rect x="30" y="18" width="1" height="1" fill="#100b06"/><rect x="1" y="19" width="1" height="1" fill="#100b06"/><rect x="2" y="19" width="28" height="1" fill="#c0392b"/><rect x="30" y="19" width="1" height="1" fill="#100b06"/><rect x="1" y="20" width="1" height="1" fill="#100b06"/><rect x="2" y="20" width="28" height="1" fill="#c0392b"/><rect x="30" y="20" width="1" height="1" fill="#100b06"/><rect x="1" y="21" width="1" height="1" fill="#100b06"/><rect x="2" y="21" width="28" height="1" fill="#ece0c0"/><rect x="30" y="21" width="1" height="1" fill="#100b06"/><rect x="1" y="22" width="1" height="1" fill="#100b06"/><rect x="2" y="22" width="28" height="1" fill="#ece0c0"/><rect x="30" y="22" width="1" height="1" fill="#100b06"/><rect x="1" y="23" width="1" height="1" fill="#100b06"/><rect x="2" y="23" width="28" height="1" fill="#ece0c0"/><rect x="30" y="23" width="1" height="1" fill="#100b06"/><rect x="1" y="24" width="1" height="1" fill="#100b06"/><rect x="2" y="24" width="28" height="1" fill="#c0392b"/><rect x="30" y="24" width="1" height="1" fill="#100b06"/><rect x="1" y="25" width="1" height="1" fill="#100b06"/><rect x="2" y="25" width="28" height="1" fill="#c0392b"/><rect x="30" y="25" width="1" height="1" fill="#100b06"/><rect x="1" y="26" width="1" height="1" fill="#100b06"/><rect x="2" y="26" width="28" height="1" fill="#c0392b"/><rect x="30" y="26" width="1" height="1" fill="#100b06"/><rect x="1" y="27" width="30" height="1" fill="#100b06"/></svg>
